<svg xmlns="http://www.w3.org/2000/svg" width="5135.75" height="1340.019">

<path d="M4382.725 1321.464h26.483v-90.6c-.212-7.7-.285-10.17-13.914-19.42-12.569 8.685-12.569 13.556-12.569 19.632h-.073v1.413h.073Zm-420.053-773.365a8.8265 8.8265 0 1 1-17.653 0V347.608h-97.244v200.491a8.827 8.827 0 1 1-17.654 0V347.608h-16.386a8.833 8.833 0 0 1-8.829-8.827 8.485 8.485 0 0 1 1.766-5.226l42.513-68.784 35.242-254.165a9.836 9.836 0 0 1 19.137 0l35.241 254.165 42.514 68.784a8.485 8.485 0 0 1 1.766 5.226 8.834 8.834 0 0 1-8.83 8.827h-11.583Zm-53.671-218.145h49.436l-35.592-57.558a8.473 8.473 0 0 1-1.2-3.39l-27.683-199.289-27.614 199.289a7.669 7.669 0 0 1-1.269 3.39l-35.594 57.558h79.517Zm498.866 159.248a8.83 8.83 0 0 1-17.659 0v-88.7a8.83 8.83 0 0 1 17.659 0Zm18.5 393.85a8.827 8.827 0 1 1-17.653 0V725.145a8.827 8.827 0 1 1 17.653 0Zm-42.016 0a8.829 8.829 0 0 1-17.658 0V725.145a8.829 8.829 0 0 1 17.658 0Zm-127.825 447.735a8.8275 8.8275 0 0 1-17.655 0v-121.679a8.8275 8.8275 0 1 1 17.655 0Zm-80.367 0a8.827 8.827 0 0 1-17.654 0v-121.679a8.827 8.827 0 1 1 17.654 0Zm-141.665-8.83v-112.849a8.829 8.829 0 0 1 17.658 0v112.849h38.768v-255.716l-4.659-185.731h-89.478l-4.731 186.228v255.219Zm-119.629 8.83a8.83 8.83 0 0 1-17.659 0v-121.679a8.83 8.83 0 0 1 17.659 0Zm-76.414 0a8.8265 8.8265 0 0 1-17.653 0v-121.679a8.8265 8.8265 0 1 1 17.653 0Zm1115.525 0a8.829 8.829 0 0 1-17.658 0v-121.679a8.829 8.829 0 0 1 17.658 0Zm-80.367 0a8.828 8.828 0 0 1-17.656 0v-121.679a8.828 8.828 0 1 1 17.656 0Zm-125.988-8.83v-112.849a8.828 8.828 0 0 1 17.656 0v112.849h36.649v-255.219l-4.729-186.228h-89.477l-4.662 185.731v255.716Zm-119.7 8.83a8.827 8.827 0 0 1-17.654 0v-121.679a8.827 8.827 0 1 1 17.654 0Zm-76.409 0a8.828 8.828 0 0 1-17.655 0v-121.679a8.828 8.828 0 1 1 17.655 0Zm508.325-745.542v-68.149a8.828 8.828 0 0 1 17.656 0v68.149l40.608 141.1a9.28 9.28 0 0 1 .424 1.98l12.218 142.228V870.906h.067V872.178l4.873 194.56h.07v264.049a8.83 8.83 0 0 1-8.827 8.826H5010.4a8.828 8.828 0 0 1-8.826-8.826v-264.049a4.2 4.2 0 0 1 .068-.92l4.661-184.743H4814.85l4.661 185.663h.073v264.049a8.831 8.831 0 0 1-8.829 8.826h-116.523a8.83 8.83 0 0 1-8.829-8.826v-264.049c0-.283.073-.638.073-.92l4.661-184.743h-191.954l2.263 77.543a4.5 4.5 0 0 1 .068.987v371.182a8.829 8.829 0 0 1-8.827 8.826h-188.621a8.826 8.826 0 0 1-8.826-8.826V959.605h.067l2.261-78.53h-192.724l4.661 184.743a4 4 0 0 1 .071.92v264.049a8.83 8.83 0 0 1-8.827 8.826h-116.523a8.829 8.829 0 0 1-8.829-8.826v-264.049h.07l4.661-185.663h-191.453l4.662 184.743a4 4 0 0 1 .071.92v264.049a8.829 8.829 0 0 1-8.829 8.826h-116.524a8.831 8.831 0 0 1-8.827-8.826v-264.049h.071l4.873-194.561v-1.199l.071-.073V870.552l12.215-142.228a9.252 9.252 0 0 1 .426-1.98l40.606-141.1v-68.149a8.828 8.828 0 0 1 17.656 0v68.149l41.667 141.313a8.551 8.551 0 0 1 .352 1.835l9.462 119.985 44.351-107.908a8.75 8.75 0 0 1 8.123-5.509h152.964l.564-6.637a8.826 8.826 0 0 1 .423-1.98l40.607-141.1v-68.149a8.8265 8.8265 0 0 1 17.653 0v68.149l41.666 141.313a8.326 8.326 0 0 1 .355 1.835l.565 6.568h207.905l1.416-49.223v-1.058h.068v-.635l.074-.073V683.688l19.771-199.713a8.524 8.524 0 0 1 .565-2.4l65.889-198.514V220.42a8.828 8.828 0 1 1 17.656 0v62.5l67.582 199.078a10.8 10.8 0 0 1 .5 2.614l18.149 199.642v.778l1.483 49.929h207.2l.492-6.568a8.467 8.467 0 0 1 .354-1.835l41.667-141.313v-68.149a8.827 8.827 0 0 1 17.653 0v68.149l40.606 141.1a8.828 8.828 0 0 1 .426 1.98l.564 6.637h152.965a8.747 8.747 0 0 1 8.121 5.509l44.351 107.908 9.464-119.985a8.4 8.4 0 0 1 .35-1.835Zm33.686 587.846h-44.14a8.832 8.832 0 0 1-8.826-8.827v-132.557a3.769 3.769 0 0 1 .07-.917v-.212c.354-19.7.426-24.577 25.637-46.468a8.857 8.857 0 0 1 11.369-.142c24.649 20.41 24.649 32.135 24.649 47.246v1.907h.067v131.143a8.831 8.831 0 0 1-8.827 8.827Zm-35.309-17.656h26.483V1031.214c0-9.253 0-16.6-12.642-28.673-13.558 12.5-13.63 16.457-13.841 28.32v124.574Zm-90.323 17.656h-44.139a8.831 8.831 0 0 1-8.827-8.827v-132.557a3.8 3.8 0 0 1 .069-.917v-.212c.283-19.7.424-24.577 25.638-46.468a8.856 8.856 0 0 1 11.368-.142c24.648 20.41 24.648 32.135 24.648 47.246v1.907h.07v131.143a8.832 8.832 0 0 1-8.827 8.827Zm-35.311-17.656h26.484V1031.214c0-9.253 0-16.6-12.641-28.673-13.63 12.5-13.7 16.457-13.843 28.32v124.574Zm-46.256 17.656h-44.141a8.83 8.83 0 0 1-8.826-8.827v-132.557c0-.352.068-.634.068-.917v-.212c.356-19.7.426-24.577 25.707-46.468a8.86 8.86 0 0 1 11.371-.142c24.646 20.41 24.646 32.135 24.646 47.246v133.05a8.832 8.832 0 0 1-8.827 8.827Zm-35.311-17.656h26.485v-122.314h.068v-1.907h-.068c0-9.253 0-16.666-12.642-28.673-13.562 12.5-13.63 16.457-13.843 28.32v124.574Zm-74.011 17.656h-44.138a8.833 8.833 0 0 1-8.827-8.827v-132.557a3.719 3.719 0 0 1 .071-.917v-.212c.352-19.7.426-24.577 25.636-46.468a8.857 8.857 0 0 1 11.369-.142c24.648 20.41 24.648 32.135 24.648 47.246v1.907h.069v131.143a8.831 8.831 0 0 1-8.828 8.827Zm-35.309-17.656h26.482V1031.214c0-9.253 0-16.6-12.64-28.673-13.56 12.5-13.63 16.457-13.842 28.32v124.574Zm-96.113 17.656h-44.139a8.83 8.83 0 0 1-8.826-8.827v-132.557c0-.352.068-.634.068-.917v-.212c.355-19.7.423-24.577 25.706-46.468a8.861 8.861 0 0 1 11.372-.142c24.572 20.41 24.645 32.135 24.645 47.246v133.05a8.831 8.831 0 0 1-8.826 8.827Zm-35.313-17.656h26.484v-122.314h.07v-1.907c0-9.253-.07-16.6-12.71-28.673-13.561 12.5-13.631 16.457-13.844 28.32v124.574Zm-47.174 17.656h-44.138a8.832 8.832 0 0 1-8.827-8.827v-132.557a3.694 3.694 0 0 1 .071-.917v-.212c.352-19.7.426-24.577 25.706-46.468a8.856 8.856 0 0 1 11.369-.142c24.645 20.41 24.645 32.135 24.645 47.246h-.068l.068 1.907v131.143a8.83 8.83 0 0 1-8.826 8.827Zm-35.312-17.656h26.485V1031.214c0-9.253 0-16.666-12.641-28.673-13.559 12.5-13.629 16.457-13.844 28.32v124.574Zm569.769-188.767a8.828 8.828 0 0 1-17.656 0v-56a8.828 8.828 0 0 1 17.656 0Zm-28.32 0a8.8275 8.8275 0 0 1-17.655 0v-56a8.8275 8.8275 0 0 1 17.655 0Zm-290.957 0a8.827 8.827 0 0 1-17.654 0v-56a8.827 8.827 0 1 1 17.654 0Zm-28.318 0a8.828 8.828 0 0 1-17.656 0v-56a8.828 8.828 0 0 1 17.656 0Zm-31.779-223.8a4.3 4.3 0 0 1 .071.917 11.612 11.612 0 0 1-.283 2.26l-9.25 116.809h87.5l-10.031-116.17a9.977 9.977 0 0 1-.5-2.9 10.852 10.852 0 0 1 .142-1.484l-.989-11.651-32.484-112.711-33.19 112.64Zm-18.432 9.743h-205.298l3.251 110.807h193.286Zm-222.948-3.458a8.525 8.525 0 0 1-1.839-5.368 9.072 9.072 0 0 1 1.484-4.944l-1.27-44.77H4319.59l-1.342 46.114a8.629 8.629 0 0 1 .778 3.6 9.04 9.04 0 0 1-.987 4.1l-6.147 211.72v362.352h53.178v-90.886c0-12.216 0-21.68 25.353-37.429a8.87 8.87 0 0 1 9.746-.07c26.13 16.877 26.272 20.9 26.621 36.864v.067c0 .285.074.638.074.92v90.534h56V959.112Zm518.706 114.265-45.549-110.807h-145.555l9.537 110.807Zm73.021-245.479-33.19 112.64-10.453 132.275h87.5l-11.369-132.2Zm9.041 704.015h40.537v-255.216l-4.734-186.228h-89.475l-4.661 185.731v255.716Zm-1368.281-166.519h26.484v-124.574c-.214-11.863-.281-15.819-13.844-28.32-12.64 12.077-12.64 19.42-12.64 28.673v1.907Zm35.311 17.656h-44.139a8.832 8.832 0 0 1-8.827-8.827v-131.143h.072v-1.907c0-15.111 0-26.836 24.645-47.246a8.858 8.858 0 0 1 11.369.142c25.213 21.891 25.283 26.767 25.637 46.468v.212a3.744 3.744 0 0 1 .07.917v132.557a8.833 8.833 0 0 1-8.827 8.827Zm90.323-17.656h26.483v-124.574c-.141-11.863-.212-15.819-13.842-28.32-12.641 12.077-12.641 19.42-12.641 28.673v1.907Zm35.309 17.656h-44.139a8.832 8.832 0 0 1-8.826-8.827v-131.143h.073v-1.907c0-15.111 0-26.836 24.646-47.246a8.858 8.858 0 0 1 11.369.142c25.213 21.891 25.353 26.767 25.637 46.468v.212a3.769 3.769 0 0 1 .07.917v132.557a8.832 8.832 0 0 1-8.83 8.827Zm46.258-17.656h26.482v-124.574c-.211-11.863-.281-15.819-13.841-28.32-12.641 12.007-12.641 19.42-12.641 28.673h-.071v1.907h.071Zm35.309 17.656h-44.138a8.834 8.834 0 0 1-8.828-8.827v-133.05c0-15.111 0-26.836 24.647-47.246a8.86 8.86 0 0 1 11.371.142c25.283 21.891 25.352 26.767 25.707 46.468v.212c0 .283.068.565.068.917v132.557a8.829 8.829 0 0 1-8.827 8.827Zm74.011-17.656h26.484v-124.574c-.213-11.863-.282-15.819-13.843-28.32-12.641 12.077-12.641 19.42-12.641 28.673v1.907Zm35.311 17.656h-44.132a8.832 8.832 0 0 1-8.827-8.827v-131.143h.07v-1.907c0-15.111 0-26.836 24.647-47.246a8.858 8.858 0 0 1 11.369.142c25.213 21.891 25.283 26.767 25.635 46.468v.212a3.694 3.694 0 0 1 .071.917v132.557a8.832 8.832 0 0 1-8.827 8.827Zm96.117-17.656h26.479v-124.574c-.21-11.863-.282-15.819-13.841-28.32-12.638 12.077-12.638 19.42-12.638 28.673l-.074 1.907h.074Zm35.306 17.656h-44.136a8.833 8.833 0 0 1-8.829-8.827v-133.05c.073-15.111.073-26.836 24.648-47.246a8.857 8.857 0 0 1 11.369.142c25.283 21.891 25.354 26.767 25.706 46.468v.212a3.719 3.719 0 0 1 .071.917v132.557a8.831 8.831 0 0 1-8.829 8.827Zm47.174-17.656h26.486v-124.574c-.214-11.863-.283-15.819-13.843-28.32-12.643 12.007-12.643 19.42-12.643 28.673v1.907Zm35.313 17.656h-44.139a8.831 8.831 0 0 1-8.826-8.827v-131.143h.07v-1.907h-.07c0-15.111 0-26.836 24.644-47.246h.075a8.758 8.758 0 0 1 11.3.142c25.281 21.891 25.352 26.767 25.707 46.468v.212a3.875 3.875 0 0 1 .068.917v132.557a8.83 8.83 0 0 1-8.826 8.827Zm107.7-61.792h26.483v-90.607c-.212-7.7-.285-10.17-13.914-19.42-12.569 8.685-12.569 13.558-12.569 19.631h-.073v1.414h.073Zm35.31 17.653h-44.137a8.83 8.83 0 0 1-8.828-8.827V1020.903c0-12.216 0-21.68 25.353-37.428a8.875 8.875 0 0 1 9.746-.071c26.13 16.879 26.272 20.9 26.621 36.864v.07c0 .282.074.636.074.918v98.872a8.833 8.833 0 0 1-8.829 8.827Zm-703.946-162.284a8.827 8.827 0 0 1-17.654 0v-56a8.827 8.827 0 1 1 17.654 0Zm28.319 0a8.827 8.827 0 0 1-17.653 0v-56a8.827 8.827 0 1 1 17.653 0Zm290.957 0a8.828 8.828 0 0 1-17.655 0v-56a8.828 8.828 0 0 1 17.655 0Zm28.318 0a8.826 8.826 0 1 1-17.652 0v-56a8.826 8.826 0 1 1 17.652 0Zm14.336-220.62a11.538 11.538 0 0 1-.283-2.26 3.856 3.856 0 0 1 .074-.917l-.99-12.289-33.194-112.64-32.484 112.711-.988 11.651a10.694 10.694 0 0 1 .14 1.484 9.96 9.96 0 0 1-.5 2.9l-10.025 116.173h87.5Zm224.293 6.566h-206.07l8.754 110.807h194.066Zm-310.731 0h-145.548l-45.55 110.807h181.563Zm-230.93-22.032-33.191-112.64-32.484 112.711-11.371 132.2h87.5Zm-82.768 591.375h98.867v-255.716l-4.661-185.731h-89.473l-4.733 186.228Zm722.66-799.917a48.1 48.1 0 1 1-34.039 14.053 48.03 48.03 0 0 1 34.039-14.053Zm21.539 26.553a30.431 30.431 0 1 0 8.97 21.609 30.367 30.367 0 0 0-8.97-21.609Zm36.723-61.862-59.322-174.717-57.909 174.575-18.783 189.826h153.315ZM1885.089 1318.851h457.481v-286.153h-64.478v250.065a8.828 8.828 0 1 1-17.655 0v-250.065h-74.011v250.065a8.828 8.828 0 1 1-17.655 0v-250.065h-111.366v250.065a8.829 8.829 0 1 1-17.658 0v-250.065h-64.476v250.065a8.828 8.828 0 1 1-17.656 0v-250.065h-72.526Zm786.712-754.083v-48.307a8.828 8.828 0 1 1 17.655 0v48.307h52.049v.067a8.469 8.469 0 0 1 4.8 1.414 8.791 8.791 0 0 1 2.539 12.216l-16.947 25.777 21.891 26.979a9.016 9.016 0 0 1 2.4 6.142 8.83 8.83 0 0 1-8.829 8.828h-19.766c-1.556 7.7-2.827 21.4 4.871 32.555 10.593 15.328 47.88 8.122 48.022 8.122a8.717 8.717 0 0 1 9.676 5.225c5.507 13 9.251 23.872 9.393 35.1a50.4 50.4 0 0 1-4.734 21.82h3.887a8.832 8.832 0 0 1 8.827 8.827v569.839a8.832 8.832 0 0 1-8.827 8.827h-376.9a8.831 8.831 0 0 1-8.829-8.827v-121.821a8.831 8.831 0 0 1 8.829-8.827h23.162V862.219h-678.029v334.809h23.164a8.833 8.833 0 0 1 8.829 8.827v121.822a8.833 8.833 0 0 1-8.829 8.827h-376.9a8.833 8.833 0 0 1-8.83-8.827V757.841a8.833 8.833 0 0 1 8.83-8.827h3.885a49.355 49.355 0 0 1-4.734-21.82c.14-11.229 3.885-22.1 9.322-35.1a8.85 8.85 0 0 1 9.747-5.225c.141 0 37.428 7.206 48.022-8.122 7.627-11.158 6.428-24.857 4.873-32.555h-19.773a8.83 8.83 0 0 1-8.829-8.828 9.011 9.011 0 0 1 2.4-6.142l21.891-26.979-16.948-25.777a8.839 8.839 0 0 1 2.472-12.216 8.685 8.685 0 0 1 4.871-1.414v-.067h52.05v-48.307a8.827 8.827 0 1 1 17.654 0v48.307h50.351v.067a8.737 8.737 0 0 1 7.345 13.63l-16.949 25.777 21.893 26.979a9.025 9.025 0 0 1 2.4 6.142 8.831 8.831 0 0 1-8.827 8.828h-22.106c-1.625 7.7-2.824 21.4 4.873 32.555 10.523 15.328 47.881 8.122 47.951 8.122a8.762 8.762 0 0 1 9.746 5.225c5.436 13 9.25 23.872 9.392 35.1a49.486 49.486 0 0 1-4.8 21.82h6.5a8.833 8.833 0 0 1 8.83 8.827v439.187h16.734V556.079h-15.4a8.831 8.831 0 0 1-8.827-8.827v-30.579a8.831 8.831 0 0 1 8.827-8.827h17.442v-43.785a46.632 46.632 0 0 1 37.5-45.48v-35.52a8.827 8.827 0 1 1 17.653 0v35.52a46.629 46.629 0 0 1 37.5 45.48v43.785h16.6a8.829 8.829 0 0 1 8.826 8.827v30.579a8.829 8.829 0 0 1-8.826 8.827h-17.8v243.076h76.623V538.496c0-.425.07-.778.07-1.13 4.237-69.985 18.221-133.9 51.343-185.52 30.718-47.953 77.681-84.959 148.088-105.931.214-.073.5-.14.708-.214 3.812-1.058 7.7-2.189 11.584-3.177v-66.313a8.828 8.828 0 0 1 8.826-8.826h15.887v-36.582a8.831 8.831 0 0 1 8.83-8.826h11.159V44.222a8.827 8.827 0 1 1 17.653 0v77.755h11.159a8.828 8.828 0 0 1 8.826 8.826v36.582h15.751a8.83 8.83 0 0 1 8.827 8.826v66.525c76.693 20.268 127.046 58.617 159.391 109.11 33.121 51.622 47.1 115.535 51.34 185.52 0 .352.071.7.071 1.13v260.659h71.891V556.079h-17.867a8.831 8.831 0 0 1-8.827-8.827v-30.579a8.831 8.831 0 0 1 8.827-8.827h16.665v-43.785a46.464 46.464 0 0 1 37.5-45.48v-35.52a8.827 8.827 0 1 1 17.654 0v35.52a46.632 46.632 0 0 1 37.5 45.48v43.785h17.445a8.83 8.83 0 0 1 8.826 8.827v30.579a8.83 8.83 0 0 1-8.826 8.827h-15.4v640.949h16.736v-439.19a8.832 8.832 0 0 1 8.83-8.827h6.422a50.433 50.433 0 0 1-4.729-21.82c.141-11.229 3.883-22.1 9.391-35.1a8.719 8.719 0 0 1 9.675-5.225c.144 0 37.5 7.206 48.025-8.122 7.7-11.158 6.5-24.857 4.87-32.555h-22.1a8.786 8.786 0 0 1-8.828-8.828 9.014 9.014 0 0 1 2.4-6.142l21.891-26.979-16.948-25.777a8.833 8.833 0 0 1 2.472-12.216 8.674 8.674 0 0 1 4.871-1.414v-.067h50.352Zm-6.569 17.653h-27.468l11.3 17.161a8.706 8.706 0 0 1-.282 10.735l-14.764 18.217h94.847l-14.691-18.217a8.706 8.706 0 0 1-.282-10.735l11.3-17.161h-59.958Zm-2.754 63.77h-6.99c1.7 11.018 1.838 28.037-8.192 42.515-13.064 19-44.349 18.006-58.546 16.451-3.246 8.336-5.367 15.538-5.435 22.177-.073 6.849 2.049 13.7 7.343 21.68h183.966c5.3-7.98 7.416-14.831 7.346-21.68-.071-6.639-2.19-13.841-5.438-22.177-14.2 1.555-45.479 2.545-58.544-16.451-10.029-14.478-9.887-31.5-8.194-42.515h-47.316Zm46.893 173.8h-55.647v79.307h55.647Zm-64.476-17.654h73.3a8.83 8.83 0 0 1 8.829 8.827v96.962a8.831 8.831 0 0 1-8.829 8.827h-73.3a8.833 8.833 0 0 1-8.829-8.827v-96.962a8.831 8.831 0 0 1 8.829-8.827Zm144.984-35.664h-217.016v174.151h217.02Zm-155.3 552.181v-144.7a47.704 47.704 0 0 1 95.408 0v144.7h59.896V958.476h-217.02v360.375Zm77.755 0v-144.7a30.05 30.05 0 0 0-60.1 0v144.7Zm-191.524-210.73-58.191 44.348v44.556h58.191Zm-58.191 22.174 58.191-44.279V982.487l-58.191 44.277Zm0-125.635 58.191-44.349v-97.951l-58.191 44.28Zm0-120.127 58.191-44.347V735.667l-58.191 44.28v104.581Zm0-126.692 58.191-44.348V624.09l-58.191 44.348Zm0-111.58 58.191-44.279v-45.9h-58.191Zm56.143-138.415v-43.785a28.672 28.672 0 0 0-57.343 0v43.785Zm-82.84 30.577h109.111v-12.924h-109.106Zm119.28 676.262h-124.569v104.166h124.574Zm-110.239-370.119v-27.755h-678.022v27.755Zm-337-463.768c11.865 0 22.318 7.347 29.522 19.14 6.5 10.593 10.452 24.928 10.452 40.6 0 15.749-3.956 30.084-10.452 40.677-7.2 11.8-17.657 19.14-29.522 19.14-11.933 0-22.314-7.345-29.59-19.14-6.427-10.593-10.378-24.928-10.378-40.677 0-15.677 3.951-30.012 10.378-40.6 7.276-11.793 17.657-19.14 29.59-19.14Zm14.479 28.32c-4.027-6.567-9.18-10.665-14.479-10.665-5.367 0-10.519 4.1-14.547 10.665-4.8 7.912-7.767 19-7.767 31.425 0 12.5 2.965 23.588 7.767 31.5 4.028 6.567 9.18 10.664 14.547 10.664 5.3 0 10.452-4.1 14.479-10.664 4.873-7.909 7.839-19 7.839-31.5 0-12.43-2.966-23.513-7.839-31.425Zm151.906 120.549c-3.037-67.725-12.643-122.385-30.016-165.958-17.865-44.773-44.068-78.035-79.8-102.048-4.234-1.27-8.614-2.4-13.063-3.46h-13.986c27.187 24.505 48.515 56.358 63.626 96.117 17.94 47.034 27.12 105.224 26.909 175.349Zm-61.654-250.067c19.845 21.329 35.733 46.963 47.951 77.613 18.22 45.691 28.249 102.4 31.285 172.454h62.853c-4.663-63.769-18.081-121.749-47.952-168.289-21.609-33.755-51.977-61.651-94.138-81.778Zm-2.26 250.067c.214-67.867-8.615-123.939-25.775-169.065-17.02-44.632-42.231-78.53-75.071-102.4h-3.956c-32.767 23.871-58.05 57.769-75 102.4-17.23 45.126-25.989 101.2-25.775 169.065Zm-100.489-290.112a6.29 6.29 0 0 1 1.622 0h.567a5.437 5.437 0 0 1 2.119.212l30.368.638v-55.37h-71.612v55.3l29.381-.564a6.925 6.925 0 0 1 2.4-.212l3.534.071Zm-186.58 290.109c3.036-70.056 13.064-126.763 31.215-172.454 12-30.086 27.54-55.3 46.891-76.341-40.888 19.984-70.478 47.457-91.663 80.506-29.874 46.54-43.292 104.52-47.953 168.289Zm126.341-267.3c-35.24 23.941-61.088 56.99-78.744 101.34-17.371 43.573-26.976 98.233-30.012 165.958h46.328c-.214-70.125 8.968-128.315 26.835-175.349 15.113-39.759 36.509-71.612 63.629-96.117h-12.571c-5.3 1.271-10.452 2.684-15.465 4.168Zm70.337-94.984v-27.755h-22.315v27.755Zm7.343 631.77v-122.74a23.551 23.551 0 0 0-47.1 0v122.74Zm-64.758 0v-122.74a41.208 41.208 0 0 1 82.416 0v122.74h66.662V547.328h-206.775v251.831Zm212.146 0V547.328h-45.408v251.831Zm-332.9-251.831v251.831h45.408V547.328Zm-17.66 251.831V547.328h-62.99v251.831Zm368.213-251.825v251.831h62.994V547.328Zm-724.988 81.21h10.379l-14.69-18.217a8.712 8.712 0 0 1-.283-10.735l11.3-17.161h-87.428l11.3 17.161a8.707 8.707 0 0 1-.281 10.735l-14.759 18.217h84.462Zm53.812 120.48c5.3-7.98 7.415-14.831 7.342-21.68-.067-6.639-2.189-13.841-5.434-22.177-14.2 1.555-45.482 2.545-58.615-16.451-9.961-14.478-9.82-31.5-8.121-42.515h-54.308c1.693 11.018 1.834 28.037-8.195 42.515-13.064 19-44.421 18.006-58.541 16.451-3.251 8.336-5.367 15.538-5.44 22.177-.068 6.849 1.977 13.7 7.274 21.68Zm-127.54 53.32h73.305a8.831 8.831 0 0 1 8.826 8.827v96.962a8.832 8.832 0 0 1-8.826 8.827h-73.305a8.831 8.831 0 0 1-8.829-8.827v-96.962a8.829 8.829 0 0 1 8.829-8.827Zm64.476 17.654h-55.649v79.307h55.645Zm80.858-53.318h-217.013v174.151h217.013Zm-79.377 552.181v-144.7a30.05 30.05 0 0 0-60.1 0v144.7Zm-77.752 0v-144.7a47.706 47.706 0 0 1 95.411 0v144.7h61.718V958.476h-217.013v360.375Zm209.18-232.835 58.191 44.279v-103.535l-58.191-44.277Zm58.191 66.453-58.191-44.348v88.91h58.187Zm-58.191-192.158 58.191 44.349v-98.02l-58.191-44.28Zm0-120.125 58.187 44.338V779.947l-58.191-44.28Zm0-126.693 58.191 44.348v-89.406l-58.191-44.348Zm0-111.511 58.191 44.279v-90.182h-58.191Zm59.391-94.136v-43.785a28.6725 28.6725 0 0 0-57.345 0v43.785Zm-83.616 30.577h109.038v-12.924h-109.038Zm114.405 676.262h-124.572v104.166h124.572Zm309.107 59.739h43.221v-94.491h-43.221Zm52.05 17.653h-60.877a8.831 8.831 0 0 1-8.826-8.826v-112.142a8.829 8.829 0 0 1 8.826-8.827h60.877a8.83 8.83 0 0 1 8.827 8.827v112.147a8.832 8.832 0 0 1-8.827 8.826Zm217.791-295.053v330.647a8.832 8.832 0 0 1-8.827 8.827h-475.135a8.831 8.831 0 0 1-8.829-8.827V997.028h-6.922a8.782 8.782 0 0 1-8.612-6.992l-2.331-9.109a8.784 8.784 0 0 1 5.859-10.593l253.035-93.147a9.4 9.4 0 0 1 6.074 0l255.5 94.067a8.908 8.908 0 0 1 5.508 10.452l-2.187 8.686a8.963 8.963 0 0 1-8.616 6.636Zm-17.654 0h-457.481v18.009h457.481Zm-94.631-51.9-136.44-50.211-229.516 84.463h459.03ZM3072.855 444.711h413.766l-111.157-67.725h-191.381Zm387.143 76.906a8.828 8.828 0 0 1-17.655 0V495.91a8.828 8.828 0 0 1 17.655 0Zm-87.573 0a8.8265 8.8265 0 1 1-17.653 0V495.91a8.8265 8.8265 0 1 1 17.653 0Zm-80.646 0a8.828 8.828 0 0 1-17.655 0V495.91a8.828 8.828 0 0 1 17.655 0Zm-92.087 0a8.8295 8.8295 0 0 1-17.659 0V495.91a8.8295 8.8295 0 0 1 17.659 0Zm-80.653 0a8.827 8.827 0 1 1-17.653 0V495.91a8.827 8.827 0 1 1 17.653 0Zm-76.126 45.972-89.97 32.629a8.82638127 8.82638127 0 0 1-6.005-16.6l85.664-31.073v-99.007a8.91 8.91 0 0 1 4.8-7.839l135.378-82.414v-59.746a8.83 8.83 0 0 1 8.827-8.826h196.256a8.83 8.83 0 0 1 8.827 8.826v59.746l135.379 82.414a8.783 8.783 0 0 1 4.8 7.839v105.225a8.829 8.829 0 0 1-8.827 8.826Zm506.7 39.195a8.828 8.828 0 1 1 0 17.656h-8.122v652.747a8.828 8.828 0 0 1-17.656 0V624.44h-343.5v652.747a8.827 8.827 0 1 1-17.653 0V624.44h-207.268a8.828 8.828 0 0 1 0-17.656h594.2Zm-504.654 456.562h51.411a8.832 8.832 0 0 1 8.829 8.826v205.015a8.833 8.833 0 0 1-8.829 8.827h-51.411a8.829 8.829 0 0 1-8.827-8.827v-205.015a8.829 8.829 0 0 1 8.827-8.826Zm42.581 17.655h-33.757v187.357h33.754Zm-25.419-335.373h29.519a8.783 8.783 0 0 1 8.826 8.826v155.225a8.784 8.784 0 0 1-8.826 8.827h-29.519a8.832 8.832 0 0 1-8.83-8.827V754.451a8.831 8.831 0 0 1 8.83-8.826Zm20.692 17.656h-11.863v137.569h11.863Zm-84.392-17.656h29.59a8.83 8.83 0 0 1 8.829 8.826v155.225a8.831 8.831 0 0 1-8.829 8.827h-29.59a8.831 8.831 0 0 1-8.829-8.827V754.451a8.83 8.83 0 0 1 8.829-8.826Zm20.763 17.656h-11.934v137.569h11.933Zm418.284 300.065h51.415a8.832 8.832 0 0 1 8.826 8.826v205.015a8.832 8.832 0 0 1-8.826 8.827h-51.413a8.832 8.832 0 0 1-8.827-8.827v-205.018a8.832 8.832 0 0 1 8.827-8.826Zm42.586 17.655h-33.76v187.354h33.76Zm-141.879-17.655h51.344a8.787 8.787 0 0 1 8.827 8.826v205.015a8.788 8.788 0 0 1-8.827 8.827h-51.344a8.832 8.832 0 0 1-8.827-8.827v-205.018a8.832 8.832 0 0 1 8.827-8.826Zm42.516 17.655h-33.688v187.354h33.688Zm-153.318-17.655h51.41a8.831 8.831 0 0 1 8.826 8.826v205.015a8.831 8.831 0 0 1-8.826 8.827h-51.41a8.831 8.831 0 0 1-8.827-8.827v-205.018a8.831 8.831 0 0 1 8.827-8.826Zm42.584 17.655h-33.756v187.354h33.756Zm167.511-335.376h51.415a8.83 8.83 0 0 1 8.826 8.826v155.225a8.83 8.83 0 0 1-8.826 8.827h-51.413a8.831 8.831 0 0 1-8.827-8.827V754.451a8.83 8.83 0 0 1 8.827-8.826Zm42.586 17.656h-33.76v137.569h33.76Zm-141.879-17.656h51.344a8.785 8.785 0 0 1 8.827 8.826v155.225a8.786 8.786 0 0 1-8.827 8.827h-51.344a8.831 8.831 0 0 1-8.827-8.827V754.451a8.83 8.83 0 0 1 8.827-8.826Zm42.516 17.656h-33.688v137.569h33.688Zm-153.318-17.656h51.41a8.829 8.829 0 0 1 8.826 8.826v155.225a8.83 8.83 0 0 1-8.826 8.827h-51.41a8.829 8.829 0 0 1-8.827-8.827V754.451a8.829 8.829 0 0 1 8.827-8.826Zm42.584 17.656h-33.756v137.569h33.756Zm-79.52-403.952h178.6v-46.964h-178.6Zm318.783 103.035h-458.965v87.572h458.965Z" fill="#f0d8c3"/>

<g fill="none" stroke="#f0d8c3" stroke-width="20"><g data-name="Ellipse 2" transform="translate(708.683 681.428)">
    <circle cx="88" cy="88" r="88" stroke="none"/>
    <circle cx="88" cy="88" r="78"/></g>
    <path data-name="Linie 1" stroke-linecap="round" d="m795.183 777.232-345 549"/>
    <path data-name="Linie 2" stroke-linecap="round" d="m796.183 776.928 340 549.304"/>
    <g data-name="Ellipse 1" transform="translate(310.683 282.428)">
        <circle cx="486.5" cy="486.5" r="486.5" stroke="none"/>
        <circle cx="486.5" cy="486.5" r="476.5"/>
    </g>
</g>

<path data-name="wheel inside" d="M797.157 513.031a266.465 266.465 0 0 1 38.98 2.968 260.467 260.467 0 0 1 51.131 13.348 9.678 9.678 0 0 0 9.606-1.7 9.572 9.572 0 0 0-2.9-16.171 274.127 274.127 0 0 0-68.713-16.1c-9.391-.92-18.643-1.414-28.1-1.414a274.96 274.96 0 0 0-65.748 7.91 9.54 9.54 0 0 0 4.662 18.5 258.156 258.156 0 0 1 61.086-7.345Zm-112.923 26.2a9.507 9.507 0 0 0-1.484-17.657 9.279 9.279 0 0 0-6.993.568c-5.931 2.9-11.721 6-17.444 9.391a9.565 9.565 0 0 0 2.755 17.515 9.415 9.415 0 0 0 6.992-1.129c5.3-3.037 10.734-6.005 16.174-8.688Zm-135.028 166.17a9.575 9.575 0 0 0-18.574-4.66c-1.625 6.426-2.963 12.851-4.165 19.35-1.553 8.756 8.756 14.687 15.605 8.968a9.306 9.306 0 0 0 3.18-5.65c1.131-6.072 2.4-12.006 3.954-18.008Zm-7.766 73.022a9.576 9.576 0 0 0-19.138.706 276.432 276.432 0 0 0 21.113 96.186 9.565 9.565 0 0 0 17.585 0 9.2 9.2 0 0 0 0-7.486 254.291 254.291 0 0 1-19.56-89.406Zm46.255 137.639a9.543293 9.543293 0 0 0-15.537 11.086c3.742 5.368 7.768 10.665 11.936 15.75a9.532 9.532 0 0 0 16.877-5.862 9.17 9.17 0 0 0-2.119-6.284c-3.956-4.732-7.625-9.676-11.157-14.69Zm185.1 107.7a9.558 9.558 0 0 0-8.619 15.113 9.422 9.422 0 0 0 6.92 3.883c6.569.638 13.065.988 19.7 1.2a9.57212738 9.57212738 0 0 0 .353-19.141c-6.146-.14-12.286-.493-18.358-1.057Zm202.114-70.621a9.538 9.538 0 1 0 13.346 13.629c4.73-4.591 9.324-9.321 13.7-14.264a9.529 9.529 0 0 0-9.536-15.537 9.211 9.211 0 0 0-4.729 2.895c-4.026 4.591-8.4 9.041-12.782 13.277Zm44.985-58.05a9.56516415 9.56516415 0 0 0 16.665 9.394 273.841 273.841 0 0 0 32.344-92.939 9.53847159 9.53847159 0 1 0-18.856-2.895 254.234 254.234 0 0 1-30.153 86.44Zm32.767-141.522a9.51892851 9.51892851 0 1 0 19-1.2c-.351-6.568-.987-13.134-1.834-19.633a9.517 9.517 0 0 0-14.267-6.99 9.388 9.388 0 0 0-4.662 9.461c.778 6.147 1.343 12.219 1.767 18.365Zm-14.831-71.894a9.552 9.552 0 0 0 17.94-6.566 274.783 274.783 0 0 0-43.292-77.258c-2.049-2.545-4.165-5.227-6.354-7.7a9.538 9.538 0 1 0-14.409 12.5l.988 1.2a255.56 255.56 0 0 1 45.127 77.822ZM797.158 361.412a9.534 9.534 0 1 0 0 19.068l2.54.07a393.39 393.39 0 0 1 89.829 11.016 9.564 9.564 0 0 0 9.96-14.9 9 9 0 0 0-5.511-3.674l-4.8-1.129a413.438 413.438 0 0 0-89.405-10.452Zm-36.582 20.763a9.54094801 9.54094801 0 1 0-1.766-19l-3.319.35c-4.238.425-8.544.919-12.782 1.484l-3.392.5c-8.827 1.271-11.157 12.922-3.528 17.583a8.984 8.984 0 0 0 6.282 1.272l3.178-.422 2.4-.286 4.871-.634 4.875-.495Zm-73.1 14.053a9.575 9.575 0 0 0-5.435-18.362 413.913 413.913 0 0 0-79.167 32.77c-2.188 1.129-4.307 2.33-6.423 3.529l-3.956 2.331a9.526 9.526 0 1 0 9.6 16.454 389.059 389.059 0 0 1 79.518-34.956c1.975-.637 3.883-1.2 5.858-1.766Zm-131.564 68.219a9.541 9.541 0 0 0-6.072-17.02 9.954 9.954 0 0 0-5.791 2.048c-3.318 2.683-6.639 5.367-9.887 8.121-1.766 1.484-3.459 2.969-5.158 4.45a9.557 9.557 0 0 0 4.876 16.6 9.734 9.734 0 0 0 7.766-2.258l3.036-2.686c3.744-3.106 7.416-6.213 11.23-9.25Zm-53.6 51.623a9.573 9.573 0 0 0-7.766-15.747 9.372 9.372 0 0 0-6.781 3.319l-1.977 2.331c-3.178 3.742-6.214 7.557-9.25 11.369a416.806 416.806 0 0 0-37.785 57.342c-1.765 3.321-3.527 6.71-5.225 10.028a9.539 9.539 0 1 0 17.02 8.618 388.959 388.959 0 0 1 51.764-77.26ZM412.06 717.34a9.538 9.538 0 1 0-18.924-2.4l-.567 4.661-.353 2.613-.282 2.54a422.045 422.045 0 0 0-.705 80.72l.209 2.613.423 4.309a9.55508243 9.55508243 0 0 0 19-2.049q-.318-3.285-.635-6.566a403.781 403.781 0 0 1 .987-79.451q.426-3.5.848-6.989Zm8.686 148.021a9.61 9.61 0 0 0-16.949-3.39 9.51 9.51 0 0 0-1.552 8.121l.846 3.178q1.593 6.036 3.392 12.077l1.056 3.6a9.588 9.588 0 0 0 17.585 1.625c2.754-5.3-2.117-16.667-3.6-22.175Zm25.214 69.915a9.53838487 9.53838487 0 1 0-17.162 8.33c1.061 2.19 2.116 4.38 3.178 6.5a409.019 409.019 0 0 0 44.562 70.479c1.411 1.835 2.9 3.671 4.3 5.438a9.6 9.6 0 0 0 16.666-3.531 9.747 9.747 0 0 0-1.834-8.547c-2.9-3.53-5.649-7.062-8.4-10.663a400.308 400.308 0 0 1-36.086-57.485c-1.061-2.049-2.121-4.166-3.18-6.285Zm87.99 119.418a9.54615872 9.54615872 0 1 0-12.924 14.053c2.473 2.26 5.017 4.52 7.557 6.778 2.33 2.048 4.735 4.1 7.133 6.146a9.554 9.554 0 1 0 12.219-14.69l-3.251-2.754c-3.6-3.108-7.2-6.284-10.734-9.533Zm197.882 97.313a9.547 9.547 0 0 0-8.969 15.4 9.258 9.258 0 0 0 5.859 3.392c7.771 1.341 23.94 6.284 28.742-1.837a9.618 9.618 0 0 0-7.2-14.337c-6.145-.706-12.289-1.623-18.431-2.613Zm74.292 5.367a9.521 9.521 0 0 0-6.852 15.892 9.349 9.349 0 0 0 7.346 3.178l3.67-.071a419.956 419.956 0 0 0 83.828-11.442l2.471-.565c2.19-.564 4.377-1.128 6.567-1.766a9.542 9.542 0 0 0-4.944-18.432 389.951 389.951 0 0 1-92.086 13.206Zm144.769-31.565a9.5650424 9.5650424 0 1 0 7.7 17.512l4.027-1.766c3.039-1.341 6-2.754 9.038-4.165 1.554-.7 3.109-1.484 4.662-2.26a9.539 9.539 0 0 0-8.475-17.092c-5.578 2.754-11.227 5.3-16.95 7.771Zm65.257-35.946a9.577 9.577 0 0 0 10.8 15.818l2.122-1.482c2.046-1.413 4.023-2.827 6-4.308a414 414 0 0 0 65.256-58.476 9.6 9.6 0 0 0-7.63-15.96 9.435 9.435 0 0 0-6.567 3.18 404.171 404.171 0 0 1-54.661 50.211c-5.012 3.812-10.1 7.555-15.322 11.017Zm104.234-105.367a9.685 9.685 0 0 0-.708 9.394 9.552 9.552 0 0 0 16.6 1.2l1.552-2.33q2.015-3.07 4.027-6.144c1.622-2.683 3.32-5.367 4.873-8.05a9.555 9.555 0 0 0-10.875-14.055 9.982 9.982 0 0 0-5.509 4.238c-3.176 5.367-6.5 10.593-9.958 15.748Zm35.242-65.536a9.56003967 9.56003967 0 0 0 17.653 7.345l1.344-3.247 1.834-4.662a416.743 416.743 0 0 0 23.376-86.014 9.56805963 9.56805963 0 0 0-18.926-2.828 383.336 383.336 0 0 1-25.281 89.406Zm29.94-145.125a9.57025968 9.57025968 0 1 0 19.14.141q.1-9.742-.212-19.49a9.6 9.6 0 0 0-16.6-6.143 9.707 9.707 0 0 0-2.54 6.849c.21 6.284.282 12.429.21 18.643Zm-6.073-74.221a9.523 9.523 0 0 0 17.232 3.67 9.174 9.174 0 0 0 1.482-7.13l-.776-4.309a410.828 410.828 0 0 0-25.7-83.827c-.778-1.7-1.484-3.389-2.263-5.082a9.543 9.543 0 1 0-17.371 7.907 392.219 392.219 0 0 1 25.633 79.8l.5 2.4q.634 3.285 1.27 6.567Zm-99.5-196.891a9.566 9.566 0 0 0 13.91-13.134 412.145 412.145 0 0 0-72.949-61.3l-1.908-1.2a9.515 9.515 0 0 0-14.408 10.309 9.147 9.147 0 0 0 4.025 5.652 390.118 390.118 0 0 1 71.328 59.673Zm-120.2-86.653a9.562 9.562 0 0 0 12.924-12 9.7 9.7 0 0 0-4.944-5.368c-1.693-.778-3.459-1.551-5.155-2.331l-4.518-1.977c-2.755-1.129-5.509-2.328-8.336-3.46a9.561 9.561 0 0 0-12.286 12.713 9.334 9.334 0 0 0 5.227 5.013c3.318 1.412 6.707 2.825 10.028 4.237 2.331 1.06 4.729 2.119 7.06 3.176Z" fill="#f0d8c3" opacity="0.86">
    <animateTransform
        attributeName="transform"
        begin="0s"
        dur="20s"
        type="rotate"
        from="0 797.17 770.88"
        to="360 797.17 770.88"
        repeatCount="indefinite"
    />
</path>

</svg>

