<svg xmlns="http://www.w3.org/2000/svg" width="815.1" height="815.035"><path fill="#f0d8c3" d="M407.524 151.621a266.465 266.465 0 0 1 38.98 2.968 260.467 260.467 0 0 1 51.131 13.348 9.678 9.678 0 0 0 9.606-1.7 9.572 9.572 0 0 0-2.9-16.171 274.127 274.127 0 0 0-68.713-16.1c-9.391-.92-18.643-1.414-28.1-1.414a274.96 274.96 0 0 0-65.748 7.91 9.54 9.54 0 0 0 4.662 18.5 258.156 258.156 0 0 1 61.086-7.345Zm-112.923 26.2a9.507 9.507 0 0 0-1.484-17.657 9.279 9.279 0 0 0-6.993.568c-5.931 2.9-11.721 6-17.444 9.391a9.565 9.565 0 0 0 2.755 17.515 9.415 9.415 0 0 0 6.992-1.129c5.3-3.037 10.734-6.005 16.174-8.688Zm-135.028 166.17a9.575 9.575 0 0 0-18.574-4.66c-1.625 6.426-2.963 12.851-4.165 19.35-1.553 8.756 8.756 14.687 15.605 8.968a9.306 9.306 0 0 0 3.18-5.65c1.131-6.072 2.4-12.006 3.954-18.008Zm-7.766 73.022a9.576 9.576 0 0 0-19.138.706 276.432 276.432 0 0 0 21.113 96.186 9.565 9.565 0 0 0 17.585 0 9.2 9.2 0 0 0 0-7.486 254.291 254.291 0 0 1-19.56-89.406Zm46.255 137.639a9.543293 9.543293 0 0 0-15.537 11.086c3.742 5.368 7.768 10.665 11.936 15.75a9.532 9.532 0 0 0 16.877-5.862 9.17 9.17 0 0 0-2.119-6.284c-3.956-4.732-7.625-9.676-11.157-14.69Zm185.1 107.7a9.558 9.558 0 0 0-8.619 15.113 9.422 9.422 0 0 0 6.92 3.883c6.569.638 13.065.988 19.7 1.2a9.57212738 9.57212738 0 0 0 .353-19.141c-6.146-.14-12.286-.493-18.358-1.057Zm202.114-70.621a9.538 9.538 0 1 0 13.346 13.629c4.73-4.591 9.324-9.321 13.7-14.264a9.529 9.529 0 0 0-9.536-15.537 9.211 9.211 0 0 0-4.729 2.895c-4.026 4.591-8.4 9.041-12.782 13.277Zm44.985-58.05a9.56516415 9.56516415 0 0 0 16.665 9.394 273.841 273.841 0 0 0 32.344-92.939 9.53847159 9.53847159 0 1 0-18.856-2.895 254.234 254.234 0 0 1-30.153 86.44Zm32.767-141.522a9.51892851 9.51892851 0 1 0 19-1.2c-.351-6.568-.987-13.134-1.834-19.633a9.517 9.517 0 0 0-14.267-6.99 9.388 9.388 0 0 0-4.662 9.461c.778 6.147 1.343 12.219 1.767 18.365Zm-14.831-71.894a9.552 9.552 0 0 0 17.94-6.566 274.783 274.783 0 0 0-43.292-77.258c-2.049-2.545-4.165-5.227-6.354-7.7a9.538 9.538 0 1 0-14.409 12.5l.988 1.2a255.56 255.56 0 0 1 45.127 77.822ZM407.525.002a9.534 9.534 0 1 0 0 19.068l2.54.07a393.39 393.39 0 0 1 89.829 11.016 9.564 9.564 0 0 0 9.96-14.9 9 9 0 0 0-5.511-3.674l-4.8-1.129A413.438 413.438 0 0 0 410.138.001Zm-36.582 20.763a9.54094801 9.54094801 0 1 0-1.766-19l-3.319.35c-4.238.425-8.544.919-12.782 1.484l-3.392.5c-8.827 1.271-11.157 12.922-3.528 17.583a8.984 8.984 0 0 0 6.282 1.272l3.178-.422 2.4-.286 4.871-.634 4.875-.495Zm-73.1 14.053a9.575 9.575 0 0 0-5.435-18.362 413.913 413.913 0 0 0-79.167 32.77c-2.188 1.129-4.307 2.33-6.423 3.529l-3.956 2.331a9.526 9.526 0 1 0 9.6 16.454 389.059 389.059 0 0 1 79.518-34.956c1.975-.637 3.883-1.2 5.858-1.766Zm-131.564 68.219a9.541 9.541 0 0 0-6.072-17.02 9.954 9.954 0 0 0-5.791 2.048c-3.318 2.683-6.639 5.367-9.887 8.121-1.766 1.484-3.459 2.969-5.158 4.45a9.557 9.557 0 0 0 4.876 16.6 9.734 9.734 0 0 0 7.766-2.258l3.036-2.686c3.744-3.106 7.416-6.213 11.23-9.25Zm-53.6 51.623a9.573 9.573 0 0 0-7.766-15.747 9.372 9.372 0 0 0-6.781 3.319l-1.977 2.331c-3.178 3.742-6.214 7.557-9.25 11.369a416.806 416.806 0 0 0-37.785 57.342c-1.765 3.321-3.527 6.71-5.225 10.028a9.539 9.539 0 1 0 17.02 8.618 388.959 388.959 0 0 1 51.764-77.26ZM22.427 355.93a9.538 9.538 0 1 0-18.924-2.4l-.567 4.661-.353 2.613-.282 2.54a422.045 422.045 0 0 0-.705 80.72l.209 2.613.423 4.309a9.55508243 9.55508243 0 0 0 19-2.049q-.318-3.285-.635-6.566a403.781 403.781 0 0 1 .987-79.451q.426-3.5.848-6.989Zm8.686 148.021a9.61 9.61 0 0 0-16.949-3.39 9.51 9.51 0 0 0-1.552 8.121l.846 3.178q1.593 6.036 3.392 12.077l1.056 3.6a9.588 9.588 0 0 0 17.585 1.625c2.754-5.3-2.117-16.667-3.6-22.175Zm25.214 69.915a9.53838487 9.53838487 0 1 0-17.162 8.33c1.061 2.19 2.116 4.38 3.178 6.5a409.019 409.019 0 0 0 44.562 70.479c1.411 1.835 2.9 3.671 4.3 5.438a9.6 9.6 0 0 0 16.666-3.531 9.747 9.747 0 0 0-1.834-8.547c-2.9-3.53-5.649-7.062-8.4-10.663a400.308 400.308 0 0 1-36.086-57.485c-1.061-2.049-2.121-4.166-3.18-6.285Zm87.99 119.418a9.54615872 9.54615872 0 1 0-12.924 14.053c2.473 2.26 5.017 4.52 7.557 6.778 2.33 2.048 4.735 4.1 7.133 6.146a9.554 9.554 0 1 0 12.219-14.69l-3.251-2.754c-3.6-3.108-7.2-6.284-10.734-9.533Zm197.882 97.313a9.547 9.547 0 0 0-8.969 15.4 9.258 9.258 0 0 0 5.859 3.392c7.771 1.341 23.94 6.284 28.742-1.837a9.618 9.618 0 0 0-7.2-14.337c-6.145-.706-12.289-1.623-18.431-2.613Zm74.292 5.367a9.521 9.521 0 0 0-6.852 15.892 9.349 9.349 0 0 0 7.346 3.178l3.67-.071a419.956 419.956 0 0 0 83.828-11.442l2.471-.565c2.19-.564 4.377-1.128 6.567-1.766a9.542 9.542 0 0 0-4.944-18.432 389.951 389.951 0 0 1-92.086 13.206Zm144.769-31.565a9.5650424 9.5650424 0 1 0 7.7 17.512l4.027-1.766c3.039-1.341 6-2.754 9.038-4.165 1.554-.7 3.109-1.484 4.662-2.26a9.539 9.539 0 0 0-8.475-17.092c-5.578 2.754-11.227 5.3-16.95 7.771Zm65.257-35.946a9.577 9.577 0 0 0 10.8 15.818l2.122-1.482c2.046-1.413 4.023-2.827 6-4.308a414 414 0 0 0 65.256-58.476 9.6 9.6 0 0 0-7.63-15.96 9.435 9.435 0 0 0-6.567 3.18 404.171 404.171 0 0 1-54.661 50.211c-5.012 3.812-10.1 7.555-15.322 11.017Zm104.234-105.367a9.685 9.685 0 0 0-.708 9.394 9.552 9.552 0 0 0 16.6 1.2l1.552-2.33q2.015-3.07 4.027-6.144c1.622-2.683 3.32-5.367 4.873-8.05a9.555 9.555 0 0 0-10.875-14.055 9.982 9.982 0 0 0-5.509 4.238c-3.176 5.367-6.5 10.593-9.958 15.748Zm35.242-65.536a9.56003967 9.56003967 0 0 0 17.653 7.345l1.344-3.247 1.834-4.662a416.743 416.743 0 0 0 23.376-86.014 9.56805963 9.56805963 0 0 0-18.926-2.828 383.336 383.336 0 0 1-25.281 89.406Zm29.94-145.125a9.57025968 9.57025968 0 1 0 19.14.141q.1-9.742-.212-19.49a9.6 9.6 0 0 0-16.6-6.143 9.707 9.707 0 0 0-2.54 6.849c.21 6.284.282 12.429.21 18.643Zm-6.073-74.221a9.523 9.523 0 0 0 17.232 3.67 9.174 9.174 0 0 0 1.482-7.13l-.776-4.309a410.828 410.828 0 0 0-25.7-83.827c-.778-1.7-1.484-3.389-2.263-5.082a9.543 9.543 0 1 0-17.371 7.907 392.219 392.219 0 0 1 25.633 79.8l.5 2.4q.634 3.285 1.27 6.567Zm-99.5-196.891a9.566 9.566 0 0 0 13.91-13.134 412.145 412.145 0 0 0-72.949-61.3l-1.908-1.2a9.515 9.515 0 0 0-14.408 10.309 9.147 9.147 0 0 0 4.025 5.652 390.118 390.118 0 0 1 71.328 59.673ZM570.16 54.66a9.562 9.562 0 0 0 12.924-12 9.7 9.7 0 0 0-4.944-5.368c-1.693-.778-3.459-1.551-5.155-2.331l-4.518-1.977c-2.755-1.129-5.509-2.328-8.336-3.46a9.561 9.561 0 0 0-12.286 12.713 9.334 9.334 0 0 0 5.227 5.013c3.318 1.412 6.707 2.825 10.028 4.237 2.331 1.06 4.729 2.119 7.06 3.176Z"/></svg>